<svg width="91" height="29" viewBox="0 0 91 29" fill="none" xmlns="http://www.w3.org/2000/svg">
<g clip-path="url(#clip0_2_69)">
<path d="M18.272 9.95991C18.4697 9.25554 18.5241 8.5187 18.4322 7.79293C18.3402 7.06716 18.1037 6.36719 17.7366 5.73437C17.6461 5.57763 17.516 5.44746 17.3593 5.35695C17.2025 5.26644 17.0247 5.21878 16.8438 5.21874C16.0184 5.21642 15.2032 5.40073 14.4591 5.75789C13.715 6.11505 13.0613 6.63581 12.5469 7.28124H10.8281C10.3137 6.63581 9.65998 6.11505 8.9159 5.75789C8.17181 5.40073 7.35661 5.21642 6.53125 5.21874C6.35026 5.21878 6.17247 5.26644 6.01574 5.35695C5.859 5.44746 5.72885 5.57763 5.63836 5.73437C5.2713 6.36719 5.0348 7.06716 4.94284 7.79293C4.85088 8.5187 4.90533 9.25554 5.10297 9.95991C4.69192 10.7214 4.47414 11.5722 4.46875 12.4375V13.125C4.47037 14.2792 4.85854 15.3996 5.57131 16.3074C6.28409 17.2152 7.2804 17.858 8.40125 18.1334C8.07622 18.7018 7.90557 19.3453 7.90625 20V20.3437H6.53125C6.07541 20.3437 5.63824 20.1627 5.31591 19.8403C4.99358 19.518 4.8125 19.0808 4.8125 18.625C4.81136 17.6225 4.41262 16.6614 3.70374 15.9525C2.99487 15.2436 2.03375 14.8449 1.03125 14.8437C0.757746 14.8437 0.495443 14.9524 0.302046 15.1458C0.108649 15.3392 0 15.6015 0 15.875C0 16.1485 0.108649 16.4108 0.302046 16.6042C0.495443 16.7976 0.757746 16.9062 1.03125 16.9062C1.48709 16.9062 1.92426 17.0873 2.24659 17.4097C2.56892 17.732 2.75 18.1692 2.75 18.625C2.75114 19.6275 3.14988 20.5886 3.85876 21.2975C4.56763 22.0064 5.52875 22.4051 6.53125 22.4062H7.90625V23.4375C7.90625 23.711 8.0149 23.9733 8.2083 24.1667C8.40169 24.3601 8.664 24.4687 8.9375 24.4687C9.211 24.4687 9.47331 24.3601 9.6667 24.1667C9.8601 23.9733 9.96875 23.711 9.96875 23.4375V20C9.96875 19.5442 10.1498 19.107 10.4722 18.7847C10.7945 18.4623 11.2317 18.2812 11.6875 18.2812C12.1433 18.2812 12.5805 18.4623 12.9028 18.7847C13.2252 19.107 13.4062 19.5442 13.4062 20V23.4375C13.4062 23.711 13.5149 23.9733 13.7083 24.1667C13.9017 24.3601 14.164 24.4687 14.4375 24.4687C14.711 24.4687 14.9733 24.3601 15.1667 24.1667C15.3601 23.9733 15.4688 23.711 15.4688 23.4375V20C15.4694 19.3453 15.2988 18.7018 14.9738 18.1334C16.0946 17.858 17.0909 17.2152 17.8037 16.3074C18.5165 15.3996 18.9046 14.2792 18.9062 13.125V12.4375C18.9009 11.5722 18.6831 10.7214 18.272 9.95991ZM16.8438 13.125C16.8438 13.9455 16.5178 14.7324 15.9376 15.3126C15.3574 15.8928 14.5705 16.2187 13.75 16.2187H9.625C8.80449 16.2187 8.01758 15.8928 7.43739 15.3126C6.8572 14.7324 6.53125 13.9455 6.53125 13.125V12.4375C6.54006 11.823 6.72271 11.2235 7.05805 10.7084C7.16494 10.57 7.23373 10.4061 7.25755 10.2328C7.28137 10.0596 7.2594 9.88312 7.19383 9.72101C6.89801 8.95658 6.88581 8.11147 7.15945 7.33882C7.62257 7.42414 8.06313 7.60401 8.45363 7.8672C8.84413 8.13039 9.17618 8.47125 9.42906 8.86851C9.52229 9.01414 9.65065 9.13399 9.80232 9.21703C9.95399 9.30008 10.1241 9.34365 10.297 9.34374H13.0771C13.2502 9.34379 13.4205 9.30029 13.5723 9.21724C13.7241 9.13419 13.8526 9.01426 13.9459 8.86851C14.1987 8.47115 14.5307 8.13021 14.9212 7.86701C15.3118 7.6038 15.7524 7.42399 16.2155 7.33882C16.4892 8.11147 16.477 8.95658 16.1812 9.72101C16.1183 9.88434 16.0979 10.061 16.1221 10.2343C16.1463 10.4077 16.2143 10.572 16.3195 10.7119C16.6534 11.2262 16.8352 11.8244 16.8438 12.4375V13.125Z" fill="black"/>
</g>
<path d="M29.992 6.2H33.88V19.832H42.304V23H29.992V6.2ZM50.2626 23.192C48.9026 23.192 47.6786 22.912 46.5906 22.352C45.5186 21.776 44.6786 20.984 44.0706 19.976C43.4626 18.968 43.1586 17.824 43.1586 16.544C43.1586 15.264 43.4626 14.12 44.0706 13.112C44.6786 12.104 45.5186 11.32 46.5906 10.76C47.6786 10.184 48.9026 9.896 50.2626 9.896C51.6226 9.896 52.8386 10.184 53.9106 10.76C54.9826 11.32 55.8226 12.104 56.4306 13.112C57.0386 14.12 57.3426 15.264 57.3426 16.544C57.3426 17.824 57.0386 18.968 56.4306 19.976C55.8226 20.984 54.9826 21.776 53.9106 22.352C52.8386 22.912 51.6226 23.192 50.2626 23.192ZM50.2626 20.12C51.2226 20.12 52.0066 19.8 52.6146 19.16C53.2386 18.504 53.5506 17.632 53.5506 16.544C53.5506 15.456 53.2386 14.592 52.6146 13.952C52.0066 13.296 51.2226 12.968 50.2626 12.968C49.3026 12.968 48.5106 13.296 47.8866 13.952C47.2626 14.592 46.9506 15.456 46.9506 16.544C46.9506 17.632 47.2626 18.504 47.8866 19.16C48.5106 19.8 49.3026 20.12 50.2626 20.12ZM73.1652 10.088V20.84C73.1652 23.208 72.5492 24.968 71.3172 26.12C70.0852 27.272 68.2852 27.848 65.9172 27.848C64.6692 27.848 63.4852 27.696 62.3652 27.392C61.2452 27.088 60.3172 26.648 59.5812 26.072L61.0692 23.384C61.6132 23.832 62.3012 24.184 63.1332 24.44C63.9652 24.712 64.7972 24.848 65.6292 24.848C66.9252 24.848 67.8772 24.552 68.4852 23.96C69.1092 23.384 69.4212 22.504 69.4212 21.32V20.768C68.4452 21.84 67.0852 22.376 65.3412 22.376C64.1572 22.376 63.0692 22.12 62.0772 21.608C61.1012 21.08 60.3252 20.344 59.7492 19.4C59.1732 18.456 58.8852 17.368 58.8852 16.136C58.8852 14.904 59.1732 13.816 59.7492 12.872C60.3252 11.928 61.1012 11.2 62.0772 10.688C63.0692 10.16 64.1572 9.896 65.3412 9.896C67.2132 9.896 68.6372 10.512 69.6132 11.744V10.088H73.1652ZM66.0852 19.304C67.0772 19.304 67.8852 19.016 68.5092 18.44C69.1492 17.848 69.4692 17.08 69.4692 16.136C69.4692 15.192 69.1492 14.432 68.5092 13.856C67.8852 13.264 67.0772 12.968 66.0852 12.968C65.0932 12.968 64.2772 13.264 63.6372 13.856C62.9972 14.432 62.6772 15.192 62.6772 16.136C62.6772 17.08 62.9972 17.848 63.6372 18.44C64.2772 19.016 65.0932 19.304 66.0852 19.304ZM82.7939 23.192C81.4339 23.192 80.2099 22.912 79.1219 22.352C78.0499 21.776 77.2099 20.984 76.6019 19.976C75.9939 18.968 75.6899 17.824 75.6899 16.544C75.6899 15.264 75.9939 14.12 76.6019 13.112C77.2099 12.104 78.0499 11.32 79.1219 10.76C80.2099 10.184 81.4339 9.896 82.7939 9.896C84.1539 9.896 85.3699 10.184 86.4419 10.76C87.5139 11.32 88.3539 12.104 88.9619 13.112C89.5699 14.12 89.8739 15.264 89.8739 16.544C89.8739 17.824 89.5699 18.968 88.9619 19.976C88.3539 20.984 87.5139 21.776 86.4419 22.352C85.3699 22.912 84.1539 23.192 82.7939 23.192ZM82.7939 20.12C83.7539 20.12 84.5379 19.8 85.1459 19.16C85.7699 18.504 86.0819 17.632 86.0819 16.544C86.0819 15.456 85.7699 14.592 85.1459 13.952C84.5379 13.296 83.7539 12.968 82.7939 12.968C81.8339 12.968 81.0419 13.296 80.4179 13.952C79.7939 14.592 79.4819 15.456 79.4819 16.544C79.4819 17.632 79.7939 18.504 80.4179 19.16C81.0419 19.8 81.8339 20.12 82.7939 20.12Z" fill="black"/>
<defs>
<clipPath id="clip0_2_69">
<rect width="22" height="22" fill="white" transform="translate(0 3.5)"/>
</clipPath>
</defs>
</svg>
